<svg width="29" height="29" viewBox="0 0 29 29" fill="none" xmlns="http://www.w3.org/2000/svg">
<path fill-rule="evenodd" clip-rule="evenodd" d="M6.56354 14.3469C10.7906 12.5053 13.6093 11.2912 15.0196 10.7045C19.0464 9.02966 19.8832 8.73871 20.4285 8.72911C20.5485 8.72699 20.8167 8.75672 20.9904 8.89769C21.1371 9.01672 21.1775 9.17751 21.1968 9.29037C21.2161 9.40322 21.2401 9.6603 21.221 9.86118C21.0028 12.154 20.0586 17.718 19.5782 20.2859C19.375 21.3725 18.9748 21.7369 18.5873 21.7725C17.7453 21.85 17.1058 21.216 16.2903 20.6814C15.0141 19.8449 14.2931 19.3241 13.0544 18.5078C11.6228 17.5644 12.5508 17.0459 13.3667 16.1985C13.5802 15.9767 17.2903 12.6021 17.3621 12.296C17.371 12.2577 17.3794 12.115 17.2946 12.0397C17.2098 11.9643 17.0847 11.9901 16.9944 12.0106C16.8664 12.0396 14.8277 13.3871 10.8782 16.0531C10.2995 16.4505 9.77535 16.6441 9.30572 16.634C8.788 16.6228 7.7921 16.3412 7.05176 16.1006C6.1437 15.8054 5.42198 15.6493 5.48483 15.148C5.51756 14.8869 5.87713 14.6199 6.56354 14.3469Z" fill="#0088CC"/>
</svg>
