<svg width="29" height="29" viewBox="0 0 29 29" fill="none" xmlns="http://www.w3.org/2000/svg">
<path fill-rule="evenodd" clip-rule="evenodd" d="M6.56299 14.3469C10.79 12.5053 13.6087 11.2912 15.0191 10.7045C19.0459 9.02966 19.8826 8.73871 20.428 8.72911C20.5479 8.72699 20.8161 8.75672 20.9899 8.89769C21.1365 9.01672 21.1769 9.17751 21.1962 9.29037C21.2155 9.40322 21.2396 9.6603 21.2205 9.86118C21.0023 12.154 20.058 17.718 19.5777 20.2859C19.3744 21.3725 18.9742 21.7369 18.5867 21.7725C17.7447 21.85 17.1053 21.216 16.2897 20.6814C15.0135 19.8449 14.2926 19.3241 13.0538 18.5078C11.6222 17.5644 12.5503 17.0459 13.3661 16.1985C13.5796 15.9767 17.2897 12.6021 17.3615 12.296C17.3705 12.2577 17.3788 12.115 17.294 12.0397C17.2093 11.9643 17.0841 11.9901 16.9938 12.0106C16.8658 12.0396 14.8271 13.3871 10.8776 16.0531C10.299 16.4505 9.7748 16.6441 9.30518 16.634C8.78745 16.6228 7.79156 16.3412 7.05121 16.1006C6.14315 15.8054 5.42144 15.6493 5.48428 15.148C5.51702 14.8869 5.87659 14.6199 6.56299 14.3469Z" fill="black"/>
</svg>
