<svg width="29" height="29" viewBox="0 0 29 29" fill="none" xmlns="http://www.w3.org/2000/svg">
<path fill-rule="evenodd" clip-rule="evenodd" d="M8.083 9.0625H6.0418C5.45846 9.0625 5.3418 9.3467 5.3418 9.66087C5.3418 10.2206 6.0334 12.9988 8.5646 16.6721C10.2511 19.1816 12.6283 20.5417 14.7909 20.5417C16.0891 20.5417 16.2497 20.2391 16.2497 19.72V17.8234C16.2497 17.2192 16.3729 17.0984 16.7835 17.0984C17.0869 17.0984 17.6049 17.255 18.8173 18.4643C20.2014 19.8988 20.4291 20.5417 21.2075 20.5417H23.2497C23.833 20.5417 24.1251 20.2391 23.9562 19.6427C23.7723 19.0491 23.1115 18.1869 22.2342 17.1651C21.7582 16.5832 21.0451 15.9558 20.8286 15.6416C20.5253 15.2385 20.6121 15.0597 20.8286 14.7011C20.8286 14.7011 23.3159 11.0722 23.5754 9.8397C23.7061 9.39213 23.5754 9.0625 22.9575 9.0625H20.9163C20.3974 9.0625 20.1575 9.3467 20.0278 9.66087C20.0278 9.66087 18.9899 12.2815 17.519 13.9838C17.043 14.4768 16.8265 14.6344 16.567 14.6344C16.4373 14.6344 16.2497 14.4768 16.2497 14.0292V9.8397C16.2497 9.30223 16.0994 9.0625 15.6663 9.0625H12.4575C12.1337 9.0625 11.9386 9.3119 11.9386 9.54873C11.9386 10.0582 12.6741 10.1761 12.7497 11.6097V14.7233C12.7497 15.4067 12.6311 15.5305 12.3707 15.5305C11.6791 15.5305 9.9954 12.8973 8.99673 9.88513C8.80073 9.29933 8.60473 9.0625 8.083 9.0625Z" fill="black"/>
</svg>
