<svg width="29" height="29" viewBox="0 0 29 29" fill="none" xmlns="http://www.w3.org/2000/svg">
<path fill-rule="evenodd" clip-rule="evenodd" d="M8.08332 9.0625H6.04212C5.45879 9.0625 5.34212 9.3467 5.34212 9.66087C5.34212 10.2206 6.03372 12.9988 8.56492 16.6721C10.2515 19.1816 12.6287 20.5417 14.7912 20.5417C16.0895 20.5417 16.25 20.2391 16.25 19.72V17.8234C16.25 17.2192 16.3732 17.0984 16.7839 17.0984C17.0872 17.0984 17.6052 17.255 18.8176 18.4643C20.2017 19.8988 20.4295 20.5417 21.2079 20.5417H23.25C23.8333 20.5417 24.1255 20.2391 23.9565 19.6427C23.7727 19.0491 23.1119 18.1869 22.2345 17.1651C21.7585 16.5832 21.0455 15.9558 20.8289 15.6416C20.5256 15.2385 20.6124 15.0597 20.8289 14.7011C20.8289 14.7011 23.3163 11.0722 23.5757 9.8397C23.7064 9.39213 23.5757 9.0625 22.9579 9.0625H20.9167C20.3977 9.0625 20.1579 9.3467 20.0281 9.66087C20.0281 9.66087 18.9903 12.2815 17.5193 13.9838C17.0433 14.4768 16.8268 14.6344 16.5673 14.6344C16.4376 14.6344 16.25 14.4768 16.25 14.0292V9.8397C16.25 9.30223 16.0997 9.0625 15.6667 9.0625H12.4579C12.134 9.0625 11.9389 9.3119 11.9389 9.54873C11.9389 10.0582 12.6744 10.1761 12.75 11.6097V14.7233C12.75 15.4067 12.6315 15.5305 12.3711 15.5305C11.6795 15.5305 9.99572 12.8973 8.99706 9.88513C8.80106 9.29933 8.60506 9.0625 8.08332 9.0625Z" fill="#0077FF"/>
</svg>
