<svg width="272" height="222" viewBox="0 0 272 222" fill="none" xmlns="http://www.w3.org/2000/svg">
<path d="M29.4003 242.602C34.1065 237.331 65.7242 212.5 81.4396 200.258C87.1633 195.8 94.1841 193.402 101.439 193.402C118.983 193.402 152.789 193.402 170.416 193.402C177.756 193.402 184.847 195.902 190.757 200.255C211.049 215.204 230.072 226.343 250.8 242.602M54.0003 267.199H218C245.173 267.199 267.2 245.171 267.2 217.999V53.9986C267.2 26.8262 245.173 4.79866 218 4.79866H54.0003C26.8279 4.79866 4.80034 26.8262 4.80034 53.9986V217.999C4.80034 245.171 26.8279 267.199 54.0003 267.199ZM182.994 98.7165C182.994 73.6859 161.863 53.2344 136 53.2344C110.138 53.2344 89.0068 73.6859 89.0068 98.7165C89.0068 123.747 110.138 144.199 136 144.199C161.863 144.199 182.994 123.747 182.994 98.7165Z" stroke="black" stroke-width="8"/>
</svg>
